<svg width="345" height="210" xmlns="http://www.w3.org/2000/svg">
 <defs>
  <style>.cls-1,.cls-2{fill:#fff;}.cls-1,.cls-3,.cls-4{stroke:#000;stroke-miterlimit:10;stroke-width:3px;}.cls-3{fill:none;}.cls-4{fill:#f25652;}</style>
 </defs>
 <title>Asset 3</title>
 <g>
  <title>background</title>
  <rect fill="none" id="canvas_background" height="212" width="347" y="-1" x="-1"/>
 </g>
 <g>
  <title>Layer 1</title>
  <g id="Layer_2">
   <path id="svg_1" d="m235.53,44.33c-38.97,10.55 -176.3,52.67 -176.3,52.67a2,2 0 0 0 -1.43,1.93l0.12,47.92l218.88,-0.32l0.26,-43.42c0,-18.96 -26.46,-62.86 -41.53,-58.78z" class="cls-1"/>
   <path id="svg_2" d="m277.06,100.09c-17.34,0 -14.31,35.28 -30.88,34.67c-15,-0.55 -15.46,-36.62 -26.88,-36.62c-13.62,0 -9,19.78 -23.63,19.78c-10,0 -10.85,-17.58 -21.69,-17.83c-13.47,-0.3 -6.42,28.84 -19.75,28.84c-14.5,0 -3.8,-29.14 -17.48,-29.14c-6.62,0 -6.34,5.86 -14.74,6c-10,0.18 -11.88,-8.49 -20.06,-8.37c-10.66,0.16 -14.75,11.3 -23.31,11.17c-4.78,-0.08 -18.31,-8.73 -18.31,-8.73c-1.39,-0.89 -2.53,-0.27 -2.52,1.38l0.11,99.22a2.4,2.4 0 0 0 2.4,2.39l213.74,-0.31a3,3 0 0 0 3,-3l0,-99.45" class="cls-2"/>
   <path id="svg_3" d="m277.06,100.09c-17.34,0 -14.31,35.28 -30.88,34.67c-15,-0.55 -15.46,-36.62 -26.88,-36.62c-13.62,0 -9,19.78 -23.63,19.78c-10,0 -10.85,-17.58 -21.69,-17.83c-13.47,-0.3 -6.42,28.84 -19.75,28.84c-14.5,0 -3.8,-29.14 -17.48,-29.14c-6.62,0 -6.34,5.86 -14.74,6c-10,0.18 -11.88,-8.49 -20.06,-8.37c-10.66,0.16 -14.75,11.3 -23.31,11.17c-4.78,-0.08 -18.31,-8.73 -18.31,-8.73c-1.39,-0.89 -2.53,-0.27 -2.52,1.38l0.11,99.22a2.4,2.4 0 0 0 2.4,2.39l213.74,-0.31a3,3 0 0 0 3,-3l0,-99.45" class="cls-3"/>
   <circle id="svg_4" r="19.5" cy="61.11" cx="228.84" class="cls-1"/>
   <path id="svg_5" d="m229.13,53.14c23.4,-32.22 41.76,-54.78 81.92,-43" class="cls-3"/>
   <rect id="svg_6" height="18" width="219" y="159.86" x="57.8" class="cls-4"/>
  </g>
 </g>
</svg>