<svg xmlns="http://www.w3.org/2000/svg" viewBox="0 0 340 340"><defs><style>.cls-1,.cls-2{fill:#fff;}.cls-1,.cls-3,.cls-4{stroke:#000;stroke-miterlimit:10;stroke-width:3px;}.cls-3{fill:none;}.cls-4{fill:#f25652;}</style></defs><title>Asset 3</title><g id="Layer_2" data-name="Layer 2"><g id="Layer_4" data-name="Layer 4"><path class="cls-1" d="M234.53,104.33C195.56,114.88,58.23,157,58.23,157a2,2,0,0,0-1.43,1.93l.12,47.92,218.88-.32.26-43.42C276.06,144.15,249.6,100.25,234.53,104.33Z"/><path class="cls-2" d="M276.06,160.09c-17.34,0-14.31,35.28-30.88,34.67-15-.55-15.46-36.62-26.88-36.62-13.62,0-9,19.78-23.63,19.78-10,0-10.85-17.58-21.69-17.83-13.47-.3-6.42,28.84-19.75,28.84-14.5,0-3.8-29.14-17.48-29.14-6.62,0-6.34,5.86-14.74,6-10,.18-11.88-8.49-20.06-8.37-10.66.16-14.75,11.3-23.31,11.17-4.78-.08-18.31-8.73-18.31-8.73-1.39-.89-2.53-.27-2.52,1.38l.11,99.22a2.4,2.4,0,0,0,2.4,2.39l213.74-.31a3,3,0,0,0,3-3V160.09"/><path class="cls-3" d="M276.06,160.09c-17.34,0-14.31,35.28-30.88,34.67-15-.55-15.46-36.62-26.88-36.62-13.62,0-9,19.78-23.63,19.78-10,0-10.85-17.58-21.69-17.83-13.47-.3-6.42,28.84-19.75,28.84-14.5,0-3.8-29.14-17.48-29.14-6.62,0-6.34,5.86-14.74,6-10,.18-11.88-8.49-20.06-8.37-10.66.16-14.75,11.3-23.31,11.17-4.78-.08-18.31-8.73-18.31-8.73-1.39-.89-2.53-.27-2.52,1.38l.11,99.22a2.4,2.4,0,0,0,2.4,2.39l213.74-.31a3,3,0,0,0,3-3V160.09"/><circle class="cls-1" cx="227.84" cy="121.11" r="19.5"/><path class="cls-3" d="M228.13,113.14c23.4-32.22,41.76-54.78,81.92-43"/><rect class="cls-4" x="56.8" y="219.86" width="219" height="18"/><rect class="cls-3" x="1.5" y="1.5" width="337" height="337"/></g></g></svg>