<svg xmlns="http://www.w3.org/2000/svg" viewBox="0 0 253.25 218.32"><defs><style>.cls-1,.cls-4{fill:none;}.cls-1,.cls-2{stroke:#1d1d1b;}.cls-1,.cls-2,.cls-3,.cls-4{stroke-miterlimit:10;stroke-width:3px;}.cls-2{fill:#f25652;}.cls-3{fill:#fff;}.cls-3,.cls-4{stroke:#000;}</style></defs><title>Asset 2</title><g id="Layer_2" data-name="Layer 2"><g id="Layer_2-2" data-name="Layer 2"><path class="cls-1" d="M1.5,94.37c7.39,0,12.83,8.23,20.71,8.51,7.58.27,18.27-17.41,34.81-8.81,12.8,6.67,12.62.7,23.3,0C90.7,93.4,87.21,123,97.81,123.21c7.12.18,7.12-28.84,19.75-28.84,11.92,0,10,17.32,21.69,17.83,14.57.65,9.06-19.78,23.63-19.78,11.33,0,12,36.05,26.87,36.62,16.18.61,13.27-32.7,30.89-34.67"/><polyline class="cls-2" points="1.5 142.71 220.64 142.39 220.64 160.62 1.5 160.94 1.5 142.71"/><polyline class="cls-2" points="1.5 178.91 220.64 178.59 220.64 196.82 1.5 197.14 1.5 178.91"/><path class="cls-1" d="M178.63,40.18,2.46,94.08a1.43,1.43,0,0,0-1,1.29V215.82a1,1,0,0,0,1,1H219.64a1,1,0,0,0,1-1V95.37a14.56,14.56,0,0,0-.17-2s-2.25-13-6.59-21.43c-10.17-19.89-27.75-28.77-34.57-31.75A1,1,0,0,0,178.63,40.18Z"/><circle class="cls-3" cx="170.61" cy="55.63" r="19.5"/><path class="cls-4" d="M170.91,47.65c23.39-32.22,41.76-54.77,81.91-43"/></g></g></svg>